<svg xmlns="http://www.w3.org/2000/svg" width="433" height="425" viewBox="0 0 433 425" fill="none"><path fill-rule="evenodd" clip-rule="evenodd" d="M137.634 244.367C136.811 242.305 134.444 241.274 132.385 242.202L73.919 268.074C79.488 284.427 87.9999 297.832 97.3116 308.608C97.3025 308.634 97.2936 308.66 97.2848 308.687L92.1381 324.561C91.4176 326.725 92.5499 327.859 94.7115 327.138L109.534 321.881C109.758 321.806 109.964 321.717 110.15 321.618C129.025 338.548 145.252 344.558 145.252 344.558C147.413 345.383 149.781 344.249 150.707 342.187L175.514 283.227C145.869 265.188 137.634 244.367 137.634 244.367Z" fill="#F7FDB6"></path><path fill-rule="evenodd" clip-rule="evenodd" d="M189.924 287.969C187.866 287.144 185.498 288.072 184.675 290.236L161.927 349.918C178.195 357.864 194.069 361.337 208.332 362.302L214.116 375.895C214.981 377.919 216.589 377.971 217.641 375.904L224.665 362.377C249.507 360.948 266.404 353.01 266.404 353.01C268.462 352.083 269.389 349.506 268.565 347.444L244.17 288.381C210.511 296.73 189.924 287.969 189.924 287.969Z" fill="#ECAE28"></path><path fill-rule="evenodd" clip-rule="evenodd" d="M257.037 280.65C254.978 281.68 254.155 284.257 255.081 286.319L281.741 344.764C295.262 339.357 306.653 332.409 316.163 324.948L331.457 329.921C333.619 330.642 334.751 329.406 334.031 327.344L329.114 313.441C350.093 292.383 358.014 271.373 358.014 271.373C358.838 269.208 357.705 266.837 355.647 265.909L297.181 241.171C277.315 269.723 257.037 280.65 257.037 280.65Z" fill="#BBD9E6"></path><path fill-rule="evenodd" clip-rule="evenodd" d="M171.294 121.499C173.249 120.365 174.176 117.788 173.352 115.623L150.501 56.9722C134.711 63.0665 121.666 71.3104 111.024 80.1265C110.754 79.9377 110.428 79.776 110.048 79.6493L94.2997 74.2892C92.1381 73.5677 91.0059 74.7015 91.7264 76.8662L96.8731 91.8124C97.0176 92.2468 97.212 92.6148 97.4436 92.913C78.2133 113.439 70.6252 133.043 70.6252 133.043C69.8017 135.105 70.934 137.579 72.9926 138.403L132.076 161.802C151.325 132.837 171.294 121.499 171.294 121.499Z" fill="#CBBCEA"></path><path fill-rule="evenodd" clip-rule="evenodd" d="M211.878 41.1509C184.713 41.5736 166.559 50.684 166.559 50.684C164.5 51.6117 163.471 54.1886 164.294 56.3533L186.425 116.447C219.981 107.274 240.67 115.623 240.67 115.623C242.832 116.447 245.199 115.417 245.92 113.252L267.33 53.0548C253.827 46.8254 240.876 43.5136 229.022 42.0619L223.468 27.9226C222.612 25.764 220.968 25.6799 219.869 27.6547L211.878 41.1509Z" fill="#FFA888"></path><path fill-rule="evenodd" clip-rule="evenodd" d="M293.887 159.018C294.813 161.08 297.181 162.008 299.239 161.08L357.088 134.074C350.617 116.279 341.056 102.286 330.971 91.4562L335.678 77.5876C336.398 75.4229 335.266 74.2891 333.104 75.0106L318.796 79.9514C300.643 64.8405 284.108 59.1363 284.108 59.1363C281.947 58.4147 279.476 59.5486 278.653 61.6101L255.184 120.983C285.24 138.403 293.887 159.018 293.887 159.018Z" fill="#AFB6A6"></path><path d="M8.90625 63L8.02344 60.5234H3.15625L2.28125 63H0.351562L4.45312 51.8594H6.72656L10.8281 63H8.90625ZM3.72656 58.9219H7.46094L5.59375 53.6562L3.72656 58.9219ZM14.7659 63.1484C13.8857 63.1484 13.1514 62.9635 12.5628 62.5938C11.9743 62.2188 11.6149 61.6771 11.4847 60.9688L13.0081 60.5391C13.1123 60.9766 13.318 61.3073 13.6253 61.5312C13.9326 61.75 14.3128 61.8594 14.7659 61.8594C15.1409 61.8594 15.4586 61.7812 15.7191 61.625C15.9795 61.4688 16.1071 61.2161 16.1019 60.8672C16.1019 60.7214 16.068 60.5938 16.0003 60.4844C15.9326 60.3698 15.8519 60.276 15.7581 60.2031C15.6644 60.125 15.529 60.0495 15.3519 59.9766C15.18 59.9036 15.0211 59.8464 14.8753 59.8047C14.7347 59.763 14.542 59.7057 14.2972 59.6328C14.0524 59.5599 13.8493 59.4974 13.6878 59.4453C13.3909 59.3516 13.1409 59.2552 12.9378 59.1562C12.7347 59.0573 12.529 58.9271 12.3206 58.7656C12.1123 58.6042 11.9534 58.401 11.8441 58.1562C11.7399 57.9062 11.6878 57.6172 11.6878 57.2891C11.6878 56.7786 11.8206 56.349 12.0863 56C12.3519 55.651 12.7008 55.3984 13.1331 55.2422C13.5654 55.0807 14.0602 55 14.6175 55C15.404 55 16.0654 55.1693 16.6019 55.5078C17.1435 55.8464 17.4795 56.3646 17.6097 57.0625L16.1878 57.3984C16.0889 57.0026 15.8988 56.7109 15.6175 56.5234C15.3415 56.3359 15.0107 56.2422 14.6253 56.2422C14.2659 56.2422 13.9613 56.3177 13.7113 56.4688C13.4665 56.6146 13.3441 56.8385 13.3441 57.1406C13.3441 57.224 13.3519 57.3021 13.3675 57.375C13.3883 57.4427 13.4248 57.5052 13.4769 57.5625C13.529 57.6198 13.5758 57.6719 13.6175 57.7188C13.6592 57.7604 13.7269 57.8047 13.8206 57.8516C13.9144 57.8984 13.9899 57.9349 14.0472 57.9609C14.1045 57.987 14.1982 58.0208 14.3284 58.0625C14.4586 58.099 14.555 58.1276 14.6175 58.1484C14.68 58.1641 14.7868 58.1927 14.9378 58.2344C15.0941 58.2708 15.2034 58.2969 15.2659 58.3125C15.5576 58.3906 15.805 58.4635 16.0081 58.5312C16.2165 58.599 16.443 58.7005 16.6878 58.8359C16.9378 58.9661 17.1383 59.112 17.2894 59.2734C17.4456 59.4349 17.5758 59.6458 17.68 59.9062C17.7842 60.1615 17.8363 60.4479 17.8363 60.7656C17.8363 61.1875 17.7529 61.5573 17.5863 61.875C17.4196 62.1875 17.1904 62.4349 16.8988 62.6172C16.6123 62.7943 16.2894 62.9271 15.93 63.0156C15.5758 63.1042 15.1878 63.1484 14.7659 63.1484ZM22.0241 63.1484C21.1439 63.1484 20.4095 62.9635 19.8209 62.5938C19.2324 62.2188 18.873 61.6771 18.7428 60.9688L20.2663 60.5391C20.3704 60.9766 20.5761 61.3073 20.8834 61.5312C21.1907 61.75 21.5709 61.8594 22.0241 61.8594C22.3991 61.8594 22.7168 61.7812 22.9772 61.625C23.2376 61.4688 23.3652 61.2161 23.36 60.8672C23.36 60.7214 23.3261 60.5938 23.2584 60.4844C23.1907 60.3698 23.11 60.276 23.0163 60.2031C22.9225 60.125 22.7871 60.0495 22.61 59.9766C22.4381 59.9036 22.2793 59.8464 22.1334 59.8047C21.9928 59.763 21.8001 59.7057 21.5553 59.6328C21.3105 59.5599 21.1074 59.4974 20.9459 59.4453C20.6491 59.3516 20.3991 59.2552 20.1959 59.1562C19.9928 59.0573 19.7871 58.9271 19.5788 58.7656C19.3704 58.6042 19.2116 58.401 19.1022 58.1562C18.998 57.9062 18.9459 57.6172 18.9459 57.2891C18.9459 56.7786 19.0788 56.349 19.3444 56C19.61 55.651 19.959 55.3984 20.3913 55.2422C20.8235 55.0807 21.3183 55 21.8756 55C22.6621 55 23.3235 55.1693 23.86 55.5078C24.4017 55.8464 24.7376 56.3646 24.8678 57.0625L23.4459 57.3984C23.347 57.0026 23.1569 56.7109 22.8756 56.5234C22.5996 56.3359 22.2689 56.2422 21.8834 56.2422C21.5241 56.2422 21.2194 56.3177 20.9694 56.4688C20.7246 56.6146 20.6022 56.8385 20.6022 57.1406C20.6022 57.224 20.61 57.3021 20.6256 57.375C20.6465 57.4427 20.6829 57.5052 20.735 57.5625C20.7871 57.6198 20.834 57.6719 20.8756 57.7188C20.9173 57.7604 20.985 57.8047 21.0788 57.8516C21.1725 57.8984 21.248 57.9349 21.3053 57.9609C21.3626 57.987 21.4564 58.0208 21.5866 58.0625C21.7168 58.099 21.8131 58.1276 21.8756 58.1484C21.9381 58.1641 22.0449 58.1927 22.1959 58.2344C22.3522 58.2708 22.4616 58.2969 22.5241 58.3125C22.8157 58.3906 23.0631 58.4635 23.2663 58.5312C23.4746 58.599 23.7011 58.7005 23.9459 58.8359C24.1959 58.9661 24.3965 59.112 24.5475 59.2734C24.7038 59.4349 24.834 59.6458 24.9381 59.9062C25.0423 60.1615 25.0944 60.4479 25.0944 60.7656C25.0944 61.1875 25.011 61.5573 24.8444 61.875C24.6777 62.1875 24.4485 62.4349 24.1569 62.6172C23.8704 62.7943 23.5475 62.9271 23.1881 63.0156C22.834 63.1042 22.4459 63.1484 22.0241 63.1484ZM33.79 58.9375L33.7666 59.3906H27.79C27.8213 60.1406 28.0504 60.7135 28.4775 61.1094C28.9046 61.5052 29.4332 61.7031 30.0634 61.7031C30.5009 61.7031 30.889 61.5964 31.2275 61.3828C31.5713 61.1693 31.8317 60.8646 32.0088 60.4688L33.6494 60.75C33.3785 61.5052 32.9254 62.0938 32.29 62.5156C31.6546 62.9375 30.9176 63.1484 30.0791 63.1484C28.8551 63.1484 27.8733 62.7865 27.1338 62.0625C26.3942 61.3385 26.0244 60.3411 26.0244 59.0703C26.0244 57.8047 26.3942 56.8073 27.1338 56.0781C27.8733 55.349 28.8369 54.9844 30.0244 54.9844C31.1546 54.9844 32.0634 55.3203 32.7509 55.9922C33.4384 56.6589 33.7848 57.6406 33.79 58.9375ZM30.0322 56.3203C29.4645 56.3203 28.9905 56.4635 28.6103 56.75C28.2353 57.0312 27.9879 57.4635 27.8681 58.0469H31.9853C31.9176 57.4792 31.7093 57.0495 31.3603 56.7578C31.0114 56.4661 30.5686 56.3203 30.0322 56.3203ZM38.0091 63.1484C37.1289 63.1484 36.3945 62.9635 35.8059 62.5938C35.2174 62.2188 34.858 61.6771 34.7278 60.9688L36.2513 60.5391C36.3554 60.9766 36.5611 61.3073 36.8684 61.5312C37.1757 61.75 37.5559 61.8594 38.0091 61.8594C38.3841 61.8594 38.7018 61.7812 38.9622 61.625C39.2226 61.4688 39.3502 61.2161 39.345 60.8672C39.345 60.7214 39.3111 60.5938 39.2434 60.4844C39.1757 60.3698 39.095 60.276 39.0013 60.2031C38.9075 60.125 38.7721 60.0495 38.595 59.9766C38.4231 59.9036 38.2643 59.8464 38.1184 59.8047C37.9778 59.763 37.7851 59.7057 37.5403 59.6328C37.2955 59.5599 37.0924 59.4974 36.9309 59.4453C36.6341 59.3516 36.3841 59.2552 36.1809 59.1562C35.9778 59.0573 35.7721 58.9271 35.5638 58.7656C35.3554 58.6042 35.1966 58.401 35.0872 58.1562C34.983 57.9062 34.9309 57.6172 34.9309 57.2891C34.9309 56.7786 35.0638 56.349 35.3294 56C35.595 55.651 35.944 55.3984 36.3763 55.2422C36.8085 55.0807 37.3033 55 37.8606 55C38.6471 55 39.3085 55.1693 39.845 55.5078C40.3867 55.8464 40.7226 56.3646 40.8528 57.0625L39.4309 57.3984C39.332 57.0026 39.1419 56.7109 38.8606 56.5234C38.5846 56.3359 38.2539 56.2422 37.8684 56.2422C37.5091 56.2422 37.2044 56.3177 36.9544 56.4688C36.7096 56.6146 36.5872 56.8385 36.5872 57.1406C36.5872 57.224 36.595 57.3021 36.6106 57.375C36.6315 57.4427 36.6679 57.5052 36.72 57.5625C36.7721 57.6198 36.819 57.6719 36.8606 57.7188C36.9023 57.7604 36.97 57.8047 37.0638 57.8516C37.1575 57.8984 37.233 57.9349 37.2903 57.9609C37.3476 57.987 37.4414 58.0208 37.5716 58.0625C37.7018 58.099 37.7981 58.1276 37.8606 58.1484C37.9231 58.1641 38.0299 58.1927 38.1809 58.2344C38.3372 58.2708 38.4466 58.2969 38.5091 58.3125C38.8007 58.3906 39.0481 58.4635 39.2513 58.5312C39.4596 58.599 39.6861 58.7005 39.9309 58.8359C40.1809 58.9661 40.3815 59.112 40.5325 59.2734C40.6888 59.4349 40.819 59.6458 40.9231 59.9062C41.0273 60.1615 41.0794 60.4479 41.0794 60.7656C41.0794 61.1875 40.996 61.5573 40.8294 61.875C40.6627 62.1875 40.4335 62.4349 40.1419 62.6172C39.8554 62.7943 39.5325 62.9271 39.1731 63.0156C38.819 63.1042 38.4309 63.1484 38.0091 63.1484ZM45.2672 63.1484C44.387 63.1484 43.6526 62.9635 43.0641 62.5938C42.4755 62.2188 42.1161 61.6771 41.9859 60.9688L43.5094 60.5391C43.6135 60.9766 43.8193 61.3073 44.1266 61.5312C44.4339 61.75 44.8141 61.8594 45.2672 61.8594C45.6422 61.8594 45.9599 61.7812 46.2203 61.625C46.4807 61.4688 46.6083 61.2161 46.6031 60.8672C46.6031 60.7214 46.5693 60.5938 46.5016 60.4844C46.4339 60.3698 46.3531 60.276 46.2594 60.2031C46.1656 60.125 46.0302 60.0495 45.8531 59.9766C45.6813 59.9036 45.5224 59.8464 45.3766 59.8047C45.2359 59.763 45.0432 59.7057 44.7984 59.6328C44.5536 59.5599 44.3505 59.4974 44.1891 59.4453C43.8922 59.3516 43.6422 59.2552 43.4391 59.1562C43.2359 59.0573 43.0302 58.9271 42.8219 58.7656C42.6135 58.6042 42.4547 58.401 42.3453 58.1562C42.2411 57.9062 42.1891 57.6172 42.1891 57.2891C42.1891 56.7786 42.3219 56.349 42.5875 56C42.8531 55.651 43.2021 55.3984 43.6344 55.2422C44.0667 55.0807 44.5615 55 45.1188 55C45.9052 55 46.5667 55.1693 47.1031 55.5078C47.6448 55.8464 47.9807 56.3646 48.1109 57.0625L46.6891 57.3984C46.5901 57.0026 46.4 56.7109 46.1188 56.5234C45.8427 56.3359 45.512 56.2422 45.1266 56.2422C44.7672 56.2422 44.4625 56.3177 44.2125 56.4688C43.9677 56.6146 43.8453 56.8385 43.8453 57.1406C43.8453 57.224 43.8531 57.3021 43.8688 57.375C43.8896 57.4427 43.926 57.5052 43.9781 57.5625C44.0302 57.6198 44.0771 57.6719 44.1188 57.7188C44.1604 57.7604 44.2281 57.8047 44.3219 57.8516C44.4156 57.8984 44.4911 57.9349 44.5484 57.9609C44.6057 57.987 44.6995 58.0208 44.8297 58.0625C44.9599 58.099 45.0563 58.1276 45.1188 58.1484C45.1813 58.1641 45.288 58.1927 45.4391 58.2344C45.5953 58.2708 45.7047 58.2969 45.7672 58.3125C46.0589 58.3906 46.3063 58.4635 46.5094 58.5312C46.7177 58.599 46.9443 58.7005 47.1891 58.8359C47.4391 58.9661 47.6396 59.112 47.7906 59.2734C47.9469 59.4349 48.0771 59.6458 48.1813 59.9062C48.2854 60.1615 48.3375 60.4479 48.3375 60.7656C48.3375 61.1875 48.2542 61.5573 48.0875 61.875C47.9208 62.1875 47.6917 62.4349 47.4 62.6172C47.1135 62.7943 46.7906 62.9271 46.4313 63.0156C46.0771 63.1042 45.6891 63.1484 45.2672 63.1484ZM58.58 54.9922C59.3873 54.9922 60.0305 55.2109 60.5097 55.6484C60.9889 56.0807 61.2284 56.6953 61.2284 57.4922V63H59.4238V57.9922C59.4238 57.487 59.2935 57.1068 59.0331 56.8516C58.7727 56.5911 58.4446 56.4609 58.0488 56.4609C57.5852 56.4609 57.2076 56.6172 56.9159 56.9297C56.6295 57.237 56.4863 57.7135 56.4863 58.3594V63H54.6581V58.0312C54.6581 57.5156 54.5253 57.125 54.2597 56.8594C53.9993 56.5938 53.6659 56.4609 53.2597 56.4609C52.7961 56.4609 52.4185 56.6224 52.1269 56.9453C51.8352 57.263 51.6894 57.7604 51.6894 58.4375V63H49.9003V55.1406H51.6894V56.1094C52.205 55.3646 52.9446 54.9922 53.9081 54.9922C54.4446 54.9922 54.9133 55.099 55.3144 55.3125C55.7154 55.5208 56.0175 55.8229 56.2206 56.2188C56.7415 55.401 57.5279 54.9922 58.58 54.9922ZM70.4475 58.9375L70.4241 59.3906H64.4475C64.4787 60.1406 64.7079 60.7135 65.135 61.1094C65.5621 61.5052 66.0907 61.7031 66.7209 61.7031C67.1584 61.7031 67.5465 61.5964 67.885 61.3828C68.2287 61.1693 68.4892 60.8646 68.6662 60.4688L70.3069 60.75C70.036 61.5052 69.5829 62.0938 68.9475 62.5156C68.3121 62.9375 67.5751 63.1484 66.7366 63.1484C65.5126 63.1484 64.5308 62.7865 63.7912 62.0625C63.0517 61.3385 62.6819 60.3411 62.6819 59.0703C62.6819 57.8047 63.0517 56.8073 63.7912 56.0781C64.5308 55.349 65.4944 54.9844 66.6819 54.9844C67.8121 54.9844 68.7209 55.3203 69.4084 55.9922C70.0959 56.6589 70.4423 57.6406 70.4475 58.9375ZM66.6897 56.3203C66.122 56.3203 65.648 56.4635 65.2678 56.75C64.8928 57.0312 64.6454 57.4635 64.5256 58.0469H68.6428C68.5751 57.4792 68.3668 57.0495 68.0178 56.7578C67.6689 56.4661 67.2261 56.3203 66.6897 56.3203ZM76.2213 54.9922C77.1067 54.9922 77.7994 55.2292 78.2994 55.7031C78.7994 56.1719 79.0494 56.8411 79.0494 57.7109V63H77.2369V58.1016C77.2369 57.5443 77.091 57.1328 76.7994 56.8672C76.5129 56.5964 76.1431 56.4609 75.69 56.4609C75.1483 56.4609 74.7056 56.6276 74.3619 56.9609C74.0181 57.2891 73.8436 57.7969 73.8384 58.4844V63H72.0416V55.1406H73.8384V56.0703C74.1041 55.7266 74.44 55.4609 74.8463 55.2734C75.2577 55.0859 75.716 54.9922 76.2213 54.9922ZM83.8466 63C83.1382 63 82.5861 62.7995 82.1903 62.3984C81.7945 61.9974 81.5966 61.4323 81.5966 60.7031V56.5469H80.0263V55.1406H80.5653C80.9924 55.1406 81.2997 55.0417 81.4872 54.8438C81.6799 54.6406 81.7763 54.2891 81.7763 53.7891V52.5703H83.4169V55.1406H85.1278V56.5469H83.4169V60.5156C83.4169 60.875 83.5054 61.1484 83.6825 61.3359C83.8648 61.5182 84.1096 61.6094 84.4169 61.6094H85.1278V63H83.8466Z" fill="white"></path><path d="M35.7422 323.859V325.523H32.9922V335H31.1328V325.523H28.375V323.859H35.7422ZM42.93 330.938L42.9066 331.391H36.93C36.9612 332.141 37.1904 332.714 37.6175 333.109C38.0446 333.505 38.5732 333.703 39.2034 333.703C39.6409 333.703 40.029 333.596 40.3675 333.383C40.7112 333.169 40.9717 332.865 41.1487 332.469L42.7894 332.75C42.5185 333.505 42.0654 334.094 41.43 334.516C40.7946 334.938 40.0576 335.148 39.2191 335.148C37.9951 335.148 37.0133 334.786 36.2737 334.062C35.5342 333.339 35.1644 332.341 35.1644 331.07C35.1644 329.805 35.5342 328.807 36.2737 328.078C37.0133 327.349 37.9769 326.984 39.1644 326.984C40.2946 326.984 41.2034 327.32 41.8909 327.992C42.5784 328.659 42.9248 329.641 42.93 330.938ZM39.1722 328.32C38.6045 328.32 38.1305 328.464 37.7503 328.75C37.3753 329.031 37.1279 329.464 37.0081 330.047H41.1253C41.0576 329.479 40.8493 329.049 40.5003 328.758C40.1514 328.466 39.7086 328.32 39.1722 328.32ZM47.1491 335.148C46.2689 335.148 45.5345 334.964 44.9459 334.594C44.3574 334.219 43.998 333.677 43.8678 332.969L45.3912 332.539C45.4954 332.977 45.7011 333.307 46.0084 333.531C46.3157 333.75 46.6959 333.859 47.1491 333.859C47.5241 333.859 47.8418 333.781 48.1022 333.625C48.3626 333.469 48.4902 333.216 48.485 332.867C48.485 332.721 48.4511 332.594 48.3834 332.484C48.3157 332.37 48.235 332.276 48.1412 332.203C48.0475 332.125 47.9121 332.049 47.735 331.977C47.5631 331.904 47.4043 331.846 47.2584 331.805C47.1178 331.763 46.9251 331.706 46.6803 331.633C46.4355 331.56 46.2324 331.497 46.0709 331.445C45.7741 331.352 45.5241 331.255 45.3209 331.156C45.1178 331.057 44.9121 330.927 44.7037 330.766C44.4954 330.604 44.3366 330.401 44.2272 330.156C44.123 329.906 44.0709 329.617 44.0709 329.289C44.0709 328.779 44.2037 328.349 44.4694 328C44.735 327.651 45.084 327.398 45.5162 327.242C45.9485 327.081 46.4433 327 47.0006 327C47.7871 327 48.4485 327.169 48.985 327.508C49.5267 327.846 49.8626 328.365 49.9928 329.062L48.5709 329.398C48.472 329.003 48.2819 328.711 48.0006 328.523C47.7246 328.336 47.3939 328.242 47.0084 328.242C46.6491 328.242 46.3444 328.318 46.0944 328.469C45.8496 328.615 45.7272 328.839 45.7272 329.141C45.7272 329.224 45.735 329.302 45.7506 329.375C45.7715 329.443 45.8079 329.505 45.86 329.562C45.9121 329.62 45.959 329.672 46.0006 329.719C46.0423 329.76 46.11 329.805 46.2037 329.852C46.2975 329.898 46.373 329.935 46.4303 329.961C46.4876 329.987 46.5814 330.021 46.7116 330.062C46.8418 330.099 46.9381 330.128 47.0006 330.148C47.0631 330.164 47.1699 330.193 47.3209 330.234C47.4772 330.271 47.5866 330.297 47.6491 330.312C47.9407 330.391 48.1881 330.464 48.3912 330.531C48.5996 330.599 48.8261 330.701 49.0709 330.836C49.3209 330.966 49.5215 331.112 49.6725 331.273C49.8287 331.435 49.959 331.646 50.0631 331.906C50.1673 332.161 50.2194 332.448 50.2194 332.766C50.2194 333.188 50.136 333.557 49.9694 333.875C49.8027 334.188 49.5735 334.435 49.2819 334.617C48.9954 334.794 48.6725 334.927 48.3131 335.016C47.959 335.104 47.5709 335.148 47.1491 335.148ZM54.5009 335C53.7926 335 53.2405 334.799 52.8447 334.398C52.4489 333.997 52.2509 333.432 52.2509 332.703V328.547H50.6806V327.141H51.2197C51.6468 327.141 51.9541 327.042 52.1416 326.844C52.3343 326.641 52.4306 326.289 52.4306 325.789V324.57H54.0713V327.141H55.7822V328.547H54.0713V332.516C54.0713 332.875 54.1598 333.148 54.3369 333.336C54.5192 333.518 54.764 333.609 55.0713 333.609H55.7822V335H54.5009ZM58.2434 325.641C57.9414 325.641 57.6809 325.534 57.4622 325.32C57.2434 325.102 57.1341 324.841 57.1341 324.539C57.1341 324.237 57.2408 323.979 57.4544 323.766C57.6731 323.547 57.9361 323.438 58.2434 323.438C58.5403 323.438 58.7981 323.547 59.0169 323.766C59.2356 323.979 59.345 324.237 59.345 324.539C59.345 324.841 59.2356 325.102 59.0169 325.32C58.7981 325.534 58.5403 325.641 58.2434 325.641ZM57.3216 335V327.141H59.1262V335H57.3216ZM65.5406 326.992C66.426 326.992 67.1188 327.229 67.6188 327.703C68.1188 328.172 68.3688 328.841 68.3688 329.711V335H66.5563V330.102C66.5563 329.544 66.4104 329.133 66.1188 328.867C65.8323 328.596 65.4625 328.461 65.0094 328.461C64.4677 328.461 64.025 328.628 63.6813 328.961C63.3375 329.289 63.163 329.797 63.1578 330.484V335H61.3609V327.141H63.1578V328.07C63.4234 327.727 63.7594 327.461 64.1656 327.273C64.5771 327.086 65.0354 326.992 65.5406 326.992ZM75.9863 327.141H77.7206V334.508C77.7206 335.904 77.3665 336.953 76.6581 337.656C75.955 338.365 74.9758 338.719 73.7206 338.719C71.7363 338.719 70.4238 337.911 69.7831 336.297L71.2753 335.625C71.5045 336.182 71.8118 336.596 72.1972 336.867C72.5826 337.143 73.067 337.281 73.6503 337.281C74.3951 337.281 74.9576 337.049 75.3378 336.586C75.718 336.128 75.9081 335.474 75.9081 334.625V333.461C75.6685 333.846 75.317 334.159 74.8534 334.398C74.3951 334.633 73.8925 334.75 73.3456 334.75C72.3456 334.75 71.4967 334.385 70.7988 333.656C70.106 332.927 69.7597 331.995 69.7597 330.859C69.7597 330.292 69.856 329.766 70.0488 329.281C70.2415 328.792 70.4993 328.383 70.8222 328.055C71.1503 327.721 71.5331 327.461 71.9706 327.273C72.4081 327.086 72.8717 326.992 73.3613 326.992C73.929 326.992 74.442 327.12 74.9003 327.375C75.3639 327.625 75.7102 327.958 75.9394 328.375L75.9863 327.141ZM73.7831 333.266C74.4238 333.266 74.9654 333.031 75.4081 332.562C75.8508 332.094 76.0722 331.526 76.0722 330.859C76.0722 330.193 75.8508 329.625 75.4081 329.156C74.9706 328.682 74.429 328.445 73.7831 328.445C73.1373 328.445 72.5956 328.674 72.1581 329.133C71.7206 329.591 71.5019 330.167 71.5019 330.859C71.5019 331.542 71.7232 332.115 72.1659 332.578C72.6086 333.036 73.1477 333.266 73.7831 333.266Z" fill="white"></path><path d="M351.812 331.523H347.484V334.609H351.312V336.258H347.484V339.328H351.812V341H345.594V329.859H351.812V331.523ZM357.899 332.992C358.784 332.992 359.477 333.229 359.977 333.703C360.477 334.172 360.727 334.841 360.727 335.711V341H358.914V336.102C358.914 335.544 358.769 335.133 358.477 334.867C358.19 334.596 357.821 334.461 357.368 334.461C356.826 334.461 356.383 334.628 356.039 334.961C355.696 335.289 355.521 335.797 355.516 336.484V341H353.719V333.141H355.516V334.07C355.782 333.727 356.118 333.461 356.524 333.273C356.935 333.086 357.394 332.992 357.899 332.992ZM365.524 341C364.816 341 364.264 340.799 363.868 340.398C363.472 339.997 363.274 339.432 363.274 338.703V334.547H361.704V333.141H362.243C362.67 333.141 362.977 333.042 363.165 332.844C363.357 332.641 363.454 332.289 363.454 331.789V330.57H365.094V333.141H366.805V334.547H365.094V338.516C365.094 338.875 365.183 339.148 365.36 339.336C365.542 339.518 365.787 339.609 366.094 339.609H366.805V341H365.524ZM375.415 336.938L375.392 337.391H369.415C369.446 338.141 369.675 338.714 370.103 339.109C370.53 339.505 371.058 339.703 371.688 339.703C372.126 339.703 372.514 339.596 372.853 339.383C373.196 339.169 373.457 338.865 373.634 338.469L375.274 338.75C375.004 339.505 374.55 340.094 373.915 340.516C373.28 340.938 372.543 341.148 371.704 341.148C370.48 341.148 369.498 340.786 368.759 340.062C368.019 339.339 367.649 338.341 367.649 337.07C367.649 335.805 368.019 334.807 368.759 334.078C369.498 333.349 370.462 332.984 371.649 332.984C372.78 332.984 373.688 333.32 374.376 333.992C375.063 334.659 375.41 335.641 375.415 336.938ZM371.657 334.32C371.089 334.32 370.616 334.464 370.235 334.75C369.86 335.031 369.613 335.464 369.493 336.047H373.61C373.543 335.479 373.334 335.049 372.985 334.758C372.636 334.466 372.194 334.32 371.657 334.32ZM378.743 334.461C378.941 334.06 379.272 333.727 379.736 333.461C380.204 333.195 380.717 333.06 381.275 333.055V334.695C380.441 334.695 379.822 334.872 379.415 335.227C379.014 335.576 378.814 336.164 378.814 336.992V341H377.009V333.141H378.743V334.461ZM386.791 332.992C387.473 332.992 388.093 333.154 388.65 333.477C389.213 333.799 389.663 334.276 390.002 334.906C390.34 335.531 390.509 336.255 390.509 337.078C390.509 337.703 390.41 338.276 390.213 338.797C390.02 339.312 389.754 339.745 389.416 340.094C389.077 340.438 388.681 340.706 388.228 340.898C387.78 341.086 387.301 341.18 386.791 341.18C386.228 341.18 385.715 341.057 385.252 340.812C384.793 340.568 384.444 340.232 384.205 339.805V344.891H382.408V333.141H384.127L384.173 334.422C384.408 333.974 384.757 333.625 385.22 333.375C385.689 333.12 386.213 332.992 386.791 332.992ZM386.4 339.656C387.056 339.656 387.606 339.422 388.048 338.953C388.491 338.484 388.713 337.859 388.713 337.078C388.713 336.297 388.491 335.674 388.048 335.211C387.606 334.747 387.056 334.516 386.4 334.516C385.739 334.516 385.184 334.758 384.736 335.242C384.288 335.721 384.064 336.333 384.064 337.078C384.064 337.828 384.288 338.445 384.736 338.93C385.184 339.414 385.739 339.656 386.4 339.656ZM393.853 334.461C394.051 334.06 394.382 333.727 394.846 333.461C395.314 333.195 395.827 333.06 396.385 333.055V334.695C395.551 334.695 394.932 334.872 394.525 335.227C394.124 335.576 393.924 336.164 393.924 336.992V341H392.119V333.141H393.853V334.461ZM398.44 331.641C398.138 331.641 397.877 331.534 397.658 331.32C397.44 331.102 397.33 330.841 397.33 330.539C397.33 330.237 397.437 329.979 397.651 329.766C397.869 329.547 398.132 329.438 398.44 329.438C398.737 329.438 398.994 329.547 399.213 329.766C399.432 329.979 399.541 330.237 399.541 330.539C399.541 330.841 399.432 331.102 399.213 331.32C398.994 331.534 398.737 331.641 398.44 331.641ZM397.518 341V333.141H399.322V341H397.518ZM404.182 341.148C403.302 341.148 402.568 340.964 401.979 340.594C401.391 340.219 401.031 339.677 400.901 338.969L402.424 338.539C402.529 338.977 402.734 339.307 403.042 339.531C403.349 339.75 403.729 339.859 404.182 339.859C404.557 339.859 404.875 339.781 405.135 339.625C405.396 339.469 405.523 339.216 405.518 338.867C405.518 338.721 405.484 338.594 405.417 338.484C405.349 338.37 405.268 338.276 405.174 338.203C405.081 338.125 404.945 338.049 404.768 337.977C404.596 337.904 404.437 337.846 404.292 337.805C404.151 337.763 403.958 337.706 403.713 337.633C403.469 337.56 403.266 337.497 403.104 337.445C402.807 337.352 402.557 337.255 402.354 337.156C402.151 337.057 401.945 336.927 401.737 336.766C401.529 336.604 401.37 336.401 401.26 336.156C401.156 335.906 401.104 335.617 401.104 335.289C401.104 334.779 401.237 334.349 401.502 334C401.768 333.651 402.117 333.398 402.549 333.242C402.982 333.081 403.476 333 404.034 333C404.82 333 405.482 333.169 406.018 333.508C406.56 333.846 406.896 334.365 407.026 335.062L405.604 335.398C405.505 335.003 405.315 334.711 405.034 334.523C404.758 334.336 404.427 334.242 404.042 334.242C403.682 334.242 403.377 334.318 403.127 334.469C402.883 334.615 402.76 334.839 402.76 335.141C402.76 335.224 402.768 335.302 402.784 335.375C402.805 335.443 402.841 335.505 402.893 335.562C402.945 335.62 402.992 335.672 403.034 335.719C403.075 335.76 403.143 335.805 403.237 335.852C403.331 335.898 403.406 335.935 403.463 335.961C403.521 335.987 403.614 336.021 403.745 336.062C403.875 336.099 403.971 336.128 404.034 336.148C404.096 336.164 404.203 336.193 404.354 336.234C404.51 336.271 404.62 336.297 404.682 336.312C404.974 336.391 405.221 336.464 405.424 336.531C405.633 336.599 405.859 336.701 406.104 336.836C406.354 336.966 406.555 337.112 406.706 337.273C406.862 337.435 406.992 337.646 407.096 337.906C407.2 338.161 407.252 338.448 407.252 338.766C407.252 339.188 407.169 339.557 407.002 339.875C406.836 340.188 406.607 340.435 406.315 340.617C406.029 340.794 405.706 340.927 405.346 341.016C404.992 341.104 404.604 341.148 404.182 341.148ZM415.948 336.938L415.925 337.391H409.948C409.979 338.141 410.209 338.714 410.636 339.109C411.063 339.505 411.591 339.703 412.222 339.703C412.659 339.703 413.047 339.596 413.386 339.383C413.729 339.169 413.99 338.865 414.167 338.469L415.807 338.75C415.537 339.505 415.084 340.094 414.448 340.516C413.813 340.938 413.076 341.148 412.237 341.148C411.013 341.148 410.031 340.786 409.292 340.062C408.552 339.339 408.182 338.341 408.182 337.07C408.182 335.805 408.552 334.807 409.292 334.078C410.031 333.349 410.995 332.984 412.182 332.984C413.313 332.984 414.222 333.32 414.909 333.992C415.597 334.659 415.943 335.641 415.948 336.938ZM412.19 334.32C411.623 334.32 411.149 334.464 410.768 334.75C410.393 335.031 410.146 335.464 410.026 336.047H414.143C414.076 335.479 413.867 335.049 413.518 334.758C413.169 334.466 412.727 334.32 412.19 334.32ZM352.906 359L352.023 356.523H347.156L346.281 359H344.352L348.453 347.859H350.727L354.828 359H352.906ZM347.727 354.922H351.461L349.594 349.656L347.727 354.922ZM361.743 347H363.539V359H361.821L361.774 357.75C361.539 358.193 361.188 358.542 360.719 358.797C360.256 359.052 359.735 359.18 359.157 359.18C358.646 359.18 358.164 359.083 357.711 358.891C357.263 358.698 356.87 358.43 356.532 358.086C356.193 357.737 355.925 357.305 355.727 356.789C355.529 356.268 355.43 355.698 355.43 355.078C355.43 354.464 355.529 353.898 355.727 353.383C355.925 352.867 356.193 352.438 356.532 352.094C356.87 351.745 357.266 351.474 357.719 351.281C358.172 351.089 358.651 350.992 359.157 350.992C359.719 350.992 360.229 351.115 360.688 351.359C361.151 351.599 361.503 351.93 361.743 352.352V347ZM357.891 356.945C358.339 357.419 358.894 357.656 359.555 357.656C360.216 357.656 360.769 357.414 361.211 356.93C361.654 356.445 361.875 355.828 361.875 355.078C361.875 354.333 361.651 353.719 361.203 353.234C360.761 352.75 360.211 352.508 359.555 352.508C358.894 352.508 358.339 352.745 357.891 353.219C357.448 353.688 357.227 354.307 357.227 355.078C357.227 355.849 357.448 356.471 357.891 356.945ZM369.258 359.148C368.045 359.148 367.053 358.781 366.282 358.047C365.511 357.307 365.126 356.312 365.126 355.062C365.126 353.823 365.511 352.836 366.282 352.102C367.053 351.362 368.045 350.992 369.258 350.992C370.477 350.992 371.472 351.359 372.243 352.094C373.014 352.828 373.399 353.818 373.399 355.062C373.399 356.312 373.014 357.307 372.243 358.047C371.472 358.781 370.477 359.148 369.258 359.148ZM369.243 357.695C369.936 357.695 370.503 357.453 370.946 356.969C371.389 356.484 371.61 355.849 371.61 355.062C371.61 354.276 371.389 353.643 370.946 353.164C370.503 352.68 369.936 352.438 369.243 352.438C368.566 352.438 368.008 352.68 367.571 353.164C367.133 353.643 366.915 354.276 366.915 355.062C366.915 355.849 367.131 356.484 367.563 356.969C368.001 357.453 368.561 357.695 369.243 357.695ZM379.368 350.992C380.05 350.992 380.67 351.154 381.228 351.477C381.79 351.799 382.241 352.276 382.579 352.906C382.918 353.531 383.087 354.255 383.087 355.078C383.087 355.703 382.988 356.276 382.79 356.797C382.597 357.312 382.332 357.745 381.993 358.094C381.655 358.438 381.259 358.706 380.806 358.898C380.358 359.086 379.879 359.18 379.368 359.18C378.806 359.18 378.293 359.057 377.829 358.812C377.371 358.568 377.022 358.232 376.782 357.805V362.891H374.985V351.141H376.704L376.751 352.422C376.985 351.974 377.334 351.625 377.798 351.375C378.267 351.12 378.79 350.992 379.368 350.992ZM378.978 357.656C379.634 357.656 380.183 357.422 380.626 356.953C381.069 356.484 381.29 355.859 381.29 355.078C381.29 354.297 381.069 353.674 380.626 353.211C380.183 352.747 379.634 352.516 378.978 352.516C378.316 352.516 377.761 352.758 377.313 353.242C376.866 353.721 376.642 354.333 376.642 355.078C376.642 355.828 376.866 356.445 377.313 356.93C377.761 357.414 378.316 357.656 378.978 357.656ZM387.415 359C386.707 359 386.155 358.799 385.759 358.398C385.363 357.997 385.165 357.432 385.165 356.703V352.547H383.595V351.141H384.134C384.561 351.141 384.868 351.042 385.056 350.844C385.249 350.641 385.345 350.289 385.345 349.789V348.57H386.986V351.141H388.697V352.547H386.986V356.516C386.986 356.875 387.074 357.148 387.251 357.336C387.434 357.518 387.678 357.609 387.986 357.609H388.697V359H387.415ZM391.158 349.641C390.856 349.641 390.595 349.534 390.377 349.32C390.158 349.102 390.048 348.841 390.048 348.539C390.048 348.237 390.155 347.979 390.369 347.766C390.588 347.547 390.851 347.438 391.158 347.438C391.455 347.438 391.713 347.547 391.931 347.766C392.15 347.979 392.259 348.237 392.259 348.539C392.259 348.841 392.15 349.102 391.931 349.32C391.713 349.534 391.455 349.641 391.158 349.641ZM390.236 359V351.141H392.041V359H390.236ZM397.76 359.148C396.546 359.148 395.554 358.781 394.783 358.047C394.012 357.307 393.627 356.312 393.627 355.062C393.627 353.823 394.012 352.836 394.783 352.102C395.554 351.362 396.546 350.992 397.76 350.992C398.978 350.992 399.973 351.359 400.744 352.094C401.515 352.828 401.9 353.818 401.9 355.062C401.9 356.312 401.515 357.307 400.744 358.047C399.973 358.781 398.978 359.148 397.76 359.148ZM397.744 357.695C398.437 357.695 399.004 357.453 399.447 356.969C399.89 356.484 400.111 355.849 400.111 355.062C400.111 354.276 399.89 353.643 399.447 353.164C399.004 352.68 398.437 352.438 397.744 352.438C397.067 352.438 396.51 352.68 396.072 353.164C395.635 353.643 395.416 354.276 395.416 355.062C395.416 355.849 395.632 356.484 396.064 356.969C396.502 357.453 397.062 357.695 397.744 357.695ZM407.666 350.992C408.552 350.992 409.244 351.229 409.744 351.703C410.244 352.172 410.494 352.841 410.494 353.711V359H408.682V354.102C408.682 353.544 408.536 353.133 408.244 352.867C407.958 352.596 407.588 352.461 407.135 352.461C406.593 352.461 406.151 352.628 405.807 352.961C405.463 353.289 405.289 353.797 405.283 354.484V359H403.487V351.141H405.283V352.07C405.549 351.727 405.885 351.461 406.291 351.273C406.703 351.086 407.161 350.992 407.666 350.992Z" fill="white"></path><path d="M176.594 14V2.85938H178.461V14H176.594ZM185.196 5.99219C186.081 5.99219 186.774 6.22917 187.274 6.70312C187.774 7.17188 188.024 7.84115 188.024 8.71094V14H186.211V9.10156C186.211 8.54427 186.065 8.13281 185.774 7.86719C185.487 7.59635 185.117 7.46094 184.664 7.46094C184.123 7.46094 183.68 7.6276 183.336 7.96094C182.992 8.28906 182.818 8.79688 182.813 9.48438V14H181.016V6.14062H182.813V7.07031C183.078 6.72656 183.414 6.46094 183.821 6.27344C184.232 6.08594 184.69 5.99219 185.196 5.99219ZM192.821 14C192.113 14 191.561 13.7995 191.165 13.3984C190.769 12.9974 190.571 12.4323 190.571 11.7031V7.54688H189.001V6.14062H189.54C189.967 6.14062 190.274 6.04167 190.462 5.84375C190.654 5.64062 190.751 5.28906 190.751 4.78906V3.57031H192.391V6.14062H194.102V7.54688H192.391V11.5156C192.391 11.875 192.48 12.1484 192.657 12.3359C192.839 12.5182 193.084 12.6094 193.391 12.6094H194.102V14H192.821ZM202.712 9.9375L202.688 10.3906H196.712C196.743 11.1406 196.972 11.7135 197.399 12.1094C197.826 12.5052 198.355 12.7031 198.985 12.7031C199.423 12.7031 199.811 12.5964 200.149 12.3828C200.493 12.1693 200.754 11.8646 200.931 11.4688L202.571 11.75C202.3 12.5052 201.847 13.0938 201.212 13.5156C200.576 13.9375 199.839 14.1484 199.001 14.1484C197.777 14.1484 196.795 13.7865 196.056 13.0625C195.316 12.3385 194.946 11.3411 194.946 10.0703C194.946 8.80469 195.316 7.80729 196.056 7.07812C196.795 6.34896 197.759 5.98438 198.946 5.98438C200.076 5.98438 200.985 6.32031 201.673 6.99219C202.36 7.65885 202.707 8.64062 202.712 9.9375ZM198.954 7.32031C198.386 7.32031 197.912 7.46354 197.532 7.75C197.157 8.03125 196.91 8.46354 196.79 9.04688H200.907C200.839 8.47917 200.631 8.04948 200.282 7.75781C199.933 7.46615 199.491 7.32031 198.954 7.32031ZM209.845 6.14062H211.579V13.5078C211.579 14.9036 211.225 15.9531 210.517 16.6562C209.814 17.3646 208.835 17.7188 207.579 17.7188C205.595 17.7188 204.282 16.9115 203.642 15.2969L205.134 14.625C205.363 15.1823 205.671 15.5964 206.056 15.8672C206.441 16.1432 206.926 16.2812 207.509 16.2812C208.254 16.2812 208.816 16.0495 209.197 15.5859C209.577 15.1276 209.767 14.474 209.767 13.625V12.4609C209.527 12.8464 209.176 13.1589 208.712 13.3984C208.254 13.6328 207.751 13.75 207.204 13.75C206.204 13.75 205.355 13.3854 204.657 12.6562C203.965 11.9271 203.618 10.9948 203.618 9.85938C203.618 9.29167 203.715 8.76562 203.907 8.28125C204.1 7.79167 204.358 7.38281 204.681 7.05469C205.009 6.72135 205.392 6.46094 205.829 6.27344C206.267 6.08594 206.73 5.99219 207.22 5.99219C207.788 5.99219 208.301 6.11979 208.759 6.375C209.223 6.625 209.569 6.95833 209.798 7.375L209.845 6.14062ZM207.642 12.2656C208.282 12.2656 208.824 12.0312 209.267 11.5625C209.71 11.0938 209.931 10.526 209.931 9.85938C209.931 9.19271 209.71 8.625 209.267 8.15625C208.829 7.68229 208.288 7.44531 207.642 7.44531C206.996 7.44531 206.454 7.67448 206.017 8.13281C205.579 8.59115 205.361 9.16667 205.361 9.85938C205.361 10.5417 205.582 11.1146 206.025 11.5781C206.467 12.0365 207.006 12.2656 207.642 12.2656ZM215.533 7.46094C215.731 7.0599 216.061 6.72656 216.525 6.46094C216.994 6.19531 217.507 6.0599 218.064 6.05469V7.69531C217.231 7.69531 216.611 7.8724 216.205 8.22656C215.804 8.57552 215.603 9.16406 215.603 9.99219V14H213.798V6.14062H215.533V7.46094ZM220.971 14.1484C220.523 14.1484 220.122 14.0807 219.768 13.9453C219.419 13.8047 219.127 13.5703 218.893 13.2422C218.663 12.9089 218.549 12.4974 218.549 12.0078C218.549 11.6797 218.601 11.388 218.705 11.1328C218.814 10.8724 218.955 10.6562 219.127 10.4844C219.304 10.3125 219.525 10.1615 219.791 10.0312C220.062 9.90104 220.333 9.79948 220.603 9.72656C220.879 9.64844 221.197 9.57552 221.557 9.50781L222.744 9.28906C223.228 9.19531 223.471 8.95833 223.471 8.57812C223.471 8.13021 223.325 7.80469 223.033 7.60156C222.741 7.39323 222.374 7.28906 221.932 7.28906C221.473 7.28906 221.096 7.40104 220.799 7.625C220.502 7.84375 220.325 8.19271 220.268 8.67188L218.65 8.375C218.916 6.79167 220.046 6 222.041 6C222.374 6 222.684 6.02604 222.971 6.07812C223.262 6.125 223.546 6.21354 223.822 6.34375C224.103 6.47396 224.343 6.64062 224.541 6.84375C224.739 7.04167 224.898 7.30729 225.018 7.64062C225.137 7.96875 225.197 8.34635 225.197 8.77344V11.8203C225.197 12.1849 225.252 12.4349 225.361 12.5703C225.471 12.7057 225.663 12.7734 225.939 12.7734H226.064V14H225.213C224.322 14 223.791 13.6536 223.619 12.9609H223.533C223.247 13.3672 222.874 13.6667 222.416 13.8594C221.963 14.0521 221.481 14.1484 220.971 14.1484ZM221.393 12.7344C222.023 12.7344 222.546 12.5182 222.963 12.0859C223.379 11.6536 223.588 11.0859 223.588 10.3828L221.58 10.8281C221.148 10.9115 220.825 11.0339 220.611 11.1953C220.398 11.3516 220.291 11.5729 220.291 11.8594C220.291 12.151 220.393 12.3698 220.596 12.5156C220.799 12.6615 221.064 12.7344 221.393 12.7344ZM230.127 14C229.419 14 228.867 13.7995 228.471 13.3984C228.075 12.9974 227.877 12.4323 227.877 11.7031V7.54688H226.307V6.14062H226.846C227.273 6.14062 227.58 6.04167 227.768 5.84375C227.961 5.64062 228.057 5.28906 228.057 4.78906V3.57031H229.697V6.14062H231.408V7.54688H229.697V11.5156C229.697 11.875 229.786 12.1484 229.963 12.3359C230.145 12.5182 230.39 12.6094 230.697 12.6094H231.408V14H230.127ZM233.87 4.64062C233.568 4.64062 233.307 4.53385 233.088 4.32031C232.87 4.10156 232.76 3.84115 232.76 3.53906C232.76 3.23698 232.867 2.97917 233.081 2.76562C233.299 2.54688 233.562 2.4375 233.87 2.4375C234.167 2.4375 234.424 2.54688 234.643 2.76562C234.862 2.97917 234.971 3.23698 234.971 3.53906C234.971 3.84115 234.862 4.10156 234.643 4.32031C234.424 4.53385 234.167 4.64062 233.87 4.64062ZM232.948 14V6.14062H234.752V14H232.948ZM240.472 14.1484C239.258 14.1484 238.266 13.7812 237.495 13.0469C236.724 12.3073 236.339 11.3125 236.339 10.0625C236.339 8.82292 236.724 7.83594 237.495 7.10156C238.266 6.36198 239.258 5.99219 240.472 5.99219C241.69 5.99219 242.685 6.35938 243.456 7.09375C244.227 7.82812 244.612 8.81771 244.612 10.0625C244.612 11.3125 244.227 12.3073 243.456 13.0469C242.685 13.7812 241.69 14.1484 240.472 14.1484ZM240.456 12.6953C241.149 12.6953 241.716 12.4531 242.159 11.9688C242.602 11.4844 242.823 10.849 242.823 10.0625C242.823 9.27604 242.602 8.64323 242.159 8.16406C241.716 7.67969 241.149 7.4375 240.456 7.4375C239.779 7.4375 239.222 7.67969 238.784 8.16406C238.347 8.64323 238.128 9.27604 238.128 10.0625C238.128 10.849 238.344 11.4844 238.776 11.9688C239.214 12.4531 239.774 12.6953 240.456 12.6953ZM250.378 5.99219C251.264 5.99219 251.956 6.22917 252.456 6.70312C252.956 7.17188 253.206 7.84115 253.206 8.71094V14H251.394V9.10156C251.394 8.54427 251.248 8.13281 250.956 7.86719C250.67 7.59635 250.3 7.46094 249.847 7.46094C249.305 7.46094 248.863 7.6276 248.519 7.96094C248.175 8.28906 248.001 8.79688 247.995 9.48438V14H246.198V6.14062H247.995V7.07031C248.261 6.72656 248.597 6.46094 249.003 6.27344C249.415 6.08594 249.873 5.99219 250.378 5.99219Z" fill="white"></path><path d="M183.877 399.148C182.68 399.148 181.677 398.878 180.87 398.336C180.062 397.789 179.57 397.029 179.393 396.055L181.315 395.609C181.414 396.24 181.7 396.729 182.174 397.078C182.654 397.422 183.245 397.594 183.948 397.594C184.542 397.594 185.034 397.461 185.424 397.195C185.815 396.924 186.008 396.513 186.002 395.961C185.997 395.732 185.94 395.523 185.831 395.336C185.721 395.148 185.599 394.997 185.463 394.883C185.328 394.763 185.117 394.643 184.831 394.523C184.544 394.404 184.31 394.315 184.127 394.258C183.945 394.201 183.664 394.117 183.284 394.008C183.237 393.992 183.2 393.982 183.174 393.977C182.877 393.888 182.635 393.815 182.448 393.758C182.26 393.695 182.031 393.612 181.76 393.508C181.495 393.398 181.279 393.294 181.112 393.195C180.945 393.091 180.766 392.961 180.573 392.805C180.385 392.643 180.237 392.474 180.127 392.297C180.023 392.12 179.935 391.911 179.862 391.672C179.789 391.427 179.752 391.161 179.752 390.875C179.752 389.875 180.112 389.096 180.831 388.539C181.555 387.982 182.469 387.703 183.573 387.703C184.078 387.703 184.555 387.758 185.002 387.867C185.45 387.977 185.867 388.141 186.252 388.359C186.643 388.578 186.974 388.872 187.245 389.242C187.516 389.612 187.703 390.039 187.807 390.523L186.002 390.977C185.883 390.404 185.614 389.977 185.198 389.695C184.786 389.409 184.276 389.266 183.667 389.266C183.094 389.266 182.612 389.396 182.221 389.656C181.836 389.917 181.643 390.312 181.643 390.844C181.643 390.99 181.669 391.125 181.721 391.25C181.773 391.37 181.833 391.477 181.901 391.57C181.969 391.659 182.075 391.75 182.221 391.844C182.367 391.932 182.492 392.005 182.596 392.062C182.706 392.115 182.87 392.177 183.088 392.25C183.307 392.323 183.476 392.378 183.596 392.414C183.721 392.445 183.914 392.497 184.174 392.57C184.419 392.638 184.614 392.695 184.76 392.742C184.911 392.784 185.107 392.846 185.346 392.93C185.586 393.008 185.779 393.081 185.924 393.148C186.075 393.216 186.25 393.305 186.448 393.414C186.651 393.523 186.815 393.633 186.94 393.742C187.07 393.852 187.203 393.984 187.338 394.141C187.479 394.292 187.586 394.453 187.659 394.625C187.737 394.792 187.802 394.982 187.854 395.195C187.906 395.409 187.932 395.638 187.932 395.883C187.932 396.44 187.82 396.932 187.596 397.359C187.377 397.786 187.078 398.128 186.698 398.383C186.318 398.638 185.888 398.831 185.409 398.961C184.935 399.086 184.424 399.148 183.877 399.148ZM194.737 391.141H196.534V399H194.823L194.776 398.016C194.224 398.771 193.417 399.148 192.354 399.148C191.469 399.148 190.776 398.914 190.276 398.445C189.776 397.971 189.526 397.299 189.526 396.43V391.141H191.339V396.039C191.339 396.596 191.482 397.01 191.768 397.281C192.06 397.547 192.435 397.68 192.893 397.68C193.435 397.68 193.875 397.516 194.214 397.188C194.557 396.854 194.732 396.344 194.737 395.656V391.141ZM203.144 390.992C203.826 390.992 204.446 391.154 205.003 391.477C205.566 391.799 206.016 392.276 206.355 392.906C206.693 393.531 206.862 394.255 206.862 395.078C206.862 395.703 206.764 396.276 206.566 396.797C206.373 397.312 206.107 397.745 205.769 398.094C205.43 398.438 205.034 398.706 204.581 398.898C204.133 399.086 203.654 399.18 203.144 399.18C202.581 399.18 202.068 399.057 201.605 398.812C201.146 398.568 200.797 398.232 200.558 397.805V402.891H198.761V391.141H200.48L200.527 392.422C200.761 391.974 201.11 391.625 201.573 391.375C202.042 391.12 202.566 390.992 203.144 390.992ZM202.753 397.656C203.409 397.656 203.959 397.422 204.402 396.953C204.844 396.484 205.066 395.859 205.066 395.078C205.066 394.297 204.844 393.674 204.402 393.211C203.959 392.747 203.409 392.516 202.753 392.516C202.092 392.516 201.537 392.758 201.089 393.242C200.641 393.721 200.417 394.333 200.417 395.078C200.417 395.828 200.641 396.445 201.089 396.93C201.537 397.414 202.092 397.656 202.753 397.656ZM212.855 390.992C213.537 390.992 214.157 391.154 214.714 391.477C215.277 391.799 215.727 392.276 216.066 392.906C216.404 393.531 216.574 394.255 216.574 395.078C216.574 395.703 216.475 396.276 216.277 396.797C216.084 397.312 215.819 397.745 215.48 398.094C215.141 398.438 214.746 398.706 214.292 398.898C213.845 399.086 213.365 399.18 212.855 399.18C212.292 399.18 211.779 399.057 211.316 398.812C210.858 398.568 210.509 398.232 210.269 397.805V402.891H208.472V391.141H210.191L210.238 392.422C210.472 391.974 210.821 391.625 211.285 391.375C211.753 391.12 212.277 390.992 212.855 390.992ZM212.464 397.656C213.121 397.656 213.67 397.422 214.113 396.953C214.556 396.484 214.777 395.859 214.777 395.078C214.777 394.297 214.556 393.674 214.113 393.211C213.67 392.747 213.121 392.516 212.464 392.516C211.803 392.516 211.248 392.758 210.8 393.242C210.352 393.721 210.128 394.333 210.128 395.078C210.128 395.828 210.352 396.445 210.8 396.93C211.248 397.414 211.803 397.656 212.464 397.656ZM221.668 399.148C220.454 399.148 219.462 398.781 218.691 398.047C217.92 397.307 217.535 396.312 217.535 395.062C217.535 393.823 217.92 392.836 218.691 392.102C219.462 391.362 220.454 390.992 221.668 390.992C222.887 390.992 223.881 391.359 224.652 392.094C225.423 392.828 225.808 393.818 225.808 395.062C225.808 396.312 225.423 397.307 224.652 398.047C223.881 398.781 222.887 399.148 221.668 399.148ZM221.652 397.695C222.345 397.695 222.913 397.453 223.355 396.969C223.798 396.484 224.019 395.849 224.019 395.062C224.019 394.276 223.798 393.643 223.355 393.164C222.913 392.68 222.345 392.438 221.652 392.438C220.975 392.438 220.418 392.68 219.98 393.164C219.543 393.643 219.324 394.276 219.324 395.062C219.324 395.849 219.54 396.484 219.972 396.969C220.41 397.453 220.97 397.695 221.652 397.695ZM229.129 392.461C229.327 392.06 229.658 391.727 230.121 391.461C230.59 391.195 231.103 391.06 231.66 391.055V392.695C230.827 392.695 230.207 392.872 229.801 393.227C229.4 393.576 229.199 394.164 229.199 394.992V399H227.395V391.141H229.129V392.461ZM235.981 399C235.273 399 234.721 398.799 234.325 398.398C233.929 397.997 233.731 397.432 233.731 396.703V392.547H232.161V391.141H232.7C233.127 391.141 233.434 391.042 233.622 390.844C233.814 390.641 233.911 390.289 233.911 389.789V388.57H235.551V391.141H237.262V392.547H235.551V396.516C235.551 396.875 235.64 397.148 235.817 397.336C235.999 397.518 236.244 397.609 236.551 397.609H237.262V399H235.981ZM252.497 399H250.403L249.591 397.953C248.497 398.755 247.286 399.156 245.958 399.156C244.859 399.156 243.961 398.883 243.263 398.336C242.57 397.784 242.224 397.01 242.224 396.016C242.224 395.693 242.268 395.393 242.357 395.117C242.445 394.841 242.56 394.594 242.7 394.375C242.846 394.156 243.054 393.927 243.325 393.688C243.601 393.448 243.875 393.232 244.146 393.039C244.422 392.846 244.781 392.612 245.224 392.336L245.208 392.32C244.786 391.773 244.487 391.32 244.31 390.961C244.138 390.602 244.052 390.25 244.052 389.906C244.052 389.224 244.325 388.68 244.872 388.273C245.377 387.888 246.031 387.695 246.833 387.695C247.672 387.695 248.351 387.901 248.872 388.312C249.393 388.719 249.653 389.258 249.653 389.93C249.653 390.435 249.482 390.898 249.138 391.32C248.799 391.737 248.245 392.18 247.474 392.648L249.755 395.531C250.067 395.078 250.307 394.594 250.474 394.078C250.646 393.562 250.732 393.062 250.732 392.578H252.38C252.38 393.349 252.239 394.104 251.958 394.844C251.682 395.578 251.291 396.242 250.786 396.836L252.497 399ZM246.052 389.219C245.859 389.401 245.763 389.648 245.763 389.961C245.763 390.169 245.815 390.37 245.919 390.562C246.023 390.755 246.221 391.044 246.513 391.43L246.646 391.602C247.567 391.029 248.028 390.466 248.028 389.914C248.028 389.607 247.916 389.365 247.692 389.188C247.474 389.005 247.203 388.914 246.88 388.914C246.536 388.914 246.26 389.016 246.052 389.219ZM246.028 397.656C246.976 397.656 247.846 397.346 248.638 396.727L246.099 393.469C245.823 393.641 245.609 393.776 245.458 393.875C245.312 393.969 245.14 394.089 244.942 394.234C244.745 394.375 244.594 394.503 244.489 394.617C244.39 394.727 244.289 394.854 244.185 395C244.081 395.146 244.008 395.299 243.966 395.461C243.924 395.617 243.903 395.786 243.903 395.969C243.903 396.516 244.096 396.935 244.482 397.227C244.872 397.513 245.388 397.656 246.028 397.656ZM184.616 417H182.764L182.03 408.203L178.834 417H177.662L174.483 408.219L173.741 417H171.881L172.772 405.859H175.373L178.241 413.734L181.131 405.859H183.733L184.616 417ZM188.491 417.148C188.043 417.148 187.642 417.081 187.288 416.945C186.939 416.805 186.647 416.57 186.413 416.242C186.184 415.909 186.069 415.497 186.069 415.008C186.069 414.68 186.121 414.388 186.225 414.133C186.335 413.872 186.475 413.656 186.647 413.484C186.824 413.312 187.046 413.161 187.311 413.031C187.582 412.901 187.853 412.799 188.124 412.727C188.4 412.648 188.717 412.576 189.077 412.508L190.264 412.289C190.749 412.195 190.991 411.958 190.991 411.578C190.991 411.13 190.845 410.805 190.553 410.602C190.262 410.393 189.895 410.289 189.452 410.289C188.994 410.289 188.616 410.401 188.319 410.625C188.022 410.844 187.845 411.193 187.788 411.672L186.171 411.375C186.436 409.792 187.566 409 189.561 409C189.895 409 190.204 409.026 190.491 409.078C190.783 409.125 191.066 409.214 191.342 409.344C191.624 409.474 191.863 409.641 192.061 409.844C192.259 410.042 192.418 410.307 192.538 410.641C192.658 410.969 192.717 411.346 192.717 411.773V414.82C192.717 415.185 192.772 415.435 192.882 415.57C192.991 415.706 193.184 415.773 193.46 415.773H193.585V417H192.733C191.842 417 191.311 416.654 191.139 415.961H191.053C190.767 416.367 190.395 416.667 189.936 416.859C189.483 417.052 189.001 417.148 188.491 417.148ZM188.913 415.734C189.543 415.734 190.066 415.518 190.483 415.086C190.9 414.654 191.108 414.086 191.108 413.383L189.1 413.828C188.668 413.911 188.345 414.034 188.132 414.195C187.918 414.352 187.811 414.573 187.811 414.859C187.811 415.151 187.913 415.37 188.116 415.516C188.319 415.661 188.585 415.734 188.913 415.734ZM195.929 407.641C195.627 407.641 195.366 407.534 195.147 407.32C194.929 407.102 194.819 406.841 194.819 406.539C194.819 406.237 194.926 405.979 195.14 405.766C195.358 405.547 195.621 405.438 195.929 405.438C196.226 405.438 196.483 405.547 196.702 405.766C196.921 405.979 197.03 406.237 197.03 406.539C197.03 406.841 196.921 407.102 196.702 407.32C196.483 407.534 196.226 407.641 195.929 407.641ZM195.007 417V409.141H196.812V417H195.007ZM203.226 408.992C204.111 408.992 204.804 409.229 205.304 409.703C205.804 410.172 206.054 410.841 206.054 411.711V417H204.242V412.102C204.242 411.544 204.096 411.133 203.804 410.867C203.518 410.596 203.148 410.461 202.695 410.461C202.153 410.461 201.71 410.628 201.367 410.961C201.023 411.289 200.848 411.797 200.843 412.484V417H199.046V409.141H200.843V410.07C201.109 409.727 201.445 409.461 201.851 409.273C202.262 409.086 202.721 408.992 203.226 408.992ZM210.851 417C210.143 417 209.591 416.799 209.195 416.398C208.799 415.997 208.601 415.432 208.601 414.703V410.547H207.031V409.141H207.57C207.997 409.141 208.304 409.042 208.492 408.844C208.685 408.641 208.781 408.289 208.781 407.789V406.57H210.422V409.141H212.132V410.547H210.422V414.516C210.422 414.875 210.51 415.148 210.687 415.336C210.869 415.518 211.114 415.609 211.422 415.609H212.132V417H210.851ZM220.742 412.938L220.719 413.391H214.742C214.773 414.141 215.003 414.714 215.43 415.109C215.857 415.505 216.385 415.703 217.016 415.703C217.453 415.703 217.841 415.596 218.18 415.383C218.523 415.169 218.784 414.865 218.961 414.469L220.602 414.75C220.331 415.505 219.878 416.094 219.242 416.516C218.607 416.938 217.87 417.148 217.031 417.148C215.807 417.148 214.826 416.786 214.086 416.062C213.346 415.339 212.977 414.341 212.977 413.07C212.977 411.805 213.346 410.807 214.086 410.078C214.826 409.349 215.789 408.984 216.977 408.984C218.107 408.984 219.016 409.32 219.703 409.992C220.391 410.659 220.737 411.641 220.742 412.938ZM216.984 410.32C216.417 410.32 215.943 410.464 215.562 410.75C215.188 411.031 214.94 411.464 214.82 412.047H218.938C218.87 411.479 218.661 411.049 218.312 410.758C217.964 410.466 217.521 410.32 216.984 410.32ZM226.516 408.992C227.401 408.992 228.094 409.229 228.594 409.703C229.094 410.172 229.344 410.841 229.344 411.711V417H227.532V412.102C227.532 411.544 227.386 411.133 227.094 410.867C226.808 410.596 226.438 410.461 225.985 410.461C225.443 410.461 225 410.628 224.657 410.961C224.313 411.289 224.138 411.797 224.133 412.484V417H222.336V409.141H224.133V410.07C224.399 409.727 224.735 409.461 225.141 409.273C225.552 409.086 226.011 408.992 226.516 408.992ZM233.274 417.148C232.826 417.148 232.425 417.081 232.071 416.945C231.722 416.805 231.43 416.57 231.196 416.242C230.967 415.909 230.852 415.497 230.852 415.008C230.852 414.68 230.904 414.388 231.008 414.133C231.118 413.872 231.258 413.656 231.43 413.484C231.607 413.312 231.829 413.161 232.094 413.031C232.365 412.901 232.636 412.799 232.907 412.727C233.183 412.648 233.501 412.576 233.86 412.508L235.048 412.289C235.532 412.195 235.774 411.958 235.774 411.578C235.774 411.13 235.628 410.805 235.337 410.602C235.045 410.393 234.678 410.289 234.235 410.289C233.777 410.289 233.399 410.401 233.102 410.625C232.805 410.844 232.628 411.193 232.571 411.672L230.954 411.375C231.219 409.792 232.35 409 234.344 409C234.678 409 234.988 409.026 235.274 409.078C235.566 409.125 235.85 409.214 236.126 409.344C236.407 409.474 236.646 409.641 236.844 409.844C237.042 410.042 237.201 410.307 237.321 410.641C237.441 410.969 237.501 411.346 237.501 411.773V414.82C237.501 415.185 237.555 415.435 237.665 415.57C237.774 415.706 237.967 415.773 238.243 415.773H238.368V417H237.516C236.626 417 236.094 416.654 235.923 415.961H235.837C235.55 416.367 235.178 416.667 234.719 416.859C234.266 417.052 233.784 417.148 233.274 417.148ZM233.696 415.734C234.326 415.734 234.85 415.518 235.266 415.086C235.683 414.654 235.891 414.086 235.891 413.383L233.883 413.828C233.451 413.911 233.128 414.034 232.915 414.195C232.701 414.352 232.594 414.573 232.594 414.859C232.594 415.151 232.696 415.37 232.899 415.516C233.102 415.661 233.368 415.734 233.696 415.734ZM243.97 408.992C244.855 408.992 245.548 409.229 246.048 409.703C246.548 410.172 246.798 410.841 246.798 411.711V417H244.985V412.102C244.985 411.544 244.839 411.133 244.548 410.867C244.261 410.596 243.892 410.461 243.438 410.461C242.897 410.461 242.454 410.628 242.11 410.961C241.767 411.289 241.592 411.797 241.587 412.484V417H239.79V409.141H241.587V410.07C241.853 409.727 242.188 409.461 242.595 409.273C243.006 409.086 243.464 408.992 243.97 408.992ZM252.283 417.141C251.09 417.141 250.113 416.766 249.353 416.016C248.592 415.26 248.212 414.276 248.212 413.062C248.212 411.849 248.592 410.867 249.353 410.117C250.118 409.367 251.095 408.992 252.283 408.992C253.225 408.992 254.027 409.234 254.689 409.719C255.355 410.198 255.796 410.87 256.009 411.734L254.337 411.953C254.186 411.464 253.928 411.089 253.564 410.828C253.204 410.568 252.772 410.438 252.267 410.438C251.605 410.438 251.064 410.68 250.642 411.164C250.22 411.643 250.009 412.276 250.009 413.062C250.009 413.849 250.22 414.484 250.642 414.969C251.064 415.448 251.605 415.688 252.267 415.688C252.772 415.688 253.204 415.56 253.564 415.305C253.928 415.044 254.186 414.669 254.337 414.18L256.009 414.391C255.796 415.255 255.353 415.93 254.681 416.414C254.014 416.898 253.215 417.141 252.283 417.141ZM264.627 412.938L264.603 413.391H258.627C258.658 414.141 258.887 414.714 259.314 415.109C259.741 415.505 260.27 415.703 260.9 415.703C261.338 415.703 261.726 415.596 262.064 415.383C262.408 415.169 262.668 414.865 262.845 414.469L264.486 414.75C264.215 415.505 263.762 416.094 263.127 416.516C262.491 416.938 261.754 417.148 260.916 417.148C259.692 417.148 258.71 416.786 257.97 416.062C257.231 415.339 256.861 414.341 256.861 413.07C256.861 411.805 257.231 410.807 257.97 410.078C258.71 409.349 259.673 408.984 260.861 408.984C261.991 408.984 262.9 409.32 263.588 409.992C264.275 410.659 264.621 411.641 264.627 412.938ZM260.869 410.32C260.301 410.32 259.827 410.464 259.447 410.75C259.072 411.031 258.824 411.464 258.705 412.047H262.822C262.754 411.479 262.546 411.049 262.197 410.758C261.848 410.466 261.405 410.32 260.869 410.32Z" fill="white"></path><path d="M332.883 59H331.031L330.297 50.2031L327.102 59H325.93L322.75 50.2188L322.008 59H320.148L321.039 47.8594H323.641L326.508 55.7344L329.398 47.8594H332L332.883 59ZM335.907 49.6406C335.604 49.6406 335.344 49.5339 335.125 49.3203C334.907 49.1016 334.797 48.8411 334.797 48.5391C334.797 48.237 334.904 47.9792 335.118 47.7656C335.336 47.5469 335.599 47.4375 335.907 47.4375C336.203 47.4375 336.461 47.5469 336.68 47.7656C336.899 47.9792 337.008 48.237 337.008 48.5391C337.008 48.8411 336.899 49.1016 336.68 49.3203C336.461 49.5339 336.203 49.6406 335.907 49.6406ZM334.985 59V51.1406H336.789V59H334.985ZM344.563 51.1406H346.298V58.5078C346.298 59.9036 345.943 60.9531 345.235 61.6562C344.532 62.3646 343.553 62.7188 342.298 62.7188C340.313 62.7188 339.001 61.9115 338.36 60.2969L339.852 59.625C340.081 60.1823 340.389 60.5964 340.774 60.8672C341.159 61.1432 341.644 61.2812 342.227 61.2812C342.972 61.2812 343.534 61.0495 343.915 60.5859C344.295 60.1276 344.485 59.474 344.485 58.625V57.4609C344.245 57.8464 343.894 58.1589 343.43 58.3984C342.972 58.6328 342.469 58.75 341.923 58.75C340.923 58.75 340.074 58.3854 339.376 57.6562C338.683 56.9271 338.337 55.9948 338.337 54.8594C338.337 54.2917 338.433 53.7656 338.626 53.2812C338.818 52.7917 339.076 52.3828 339.399 52.0547C339.727 51.7214 340.11 51.4609 340.548 51.2734C340.985 51.0859 341.449 50.9922 341.938 50.9922C342.506 50.9922 343.019 51.1198 343.477 51.375C343.941 51.625 344.287 51.9583 344.516 52.375L344.563 51.1406ZM342.36 57.2656C343.001 57.2656 343.542 57.0312 343.985 56.5625C344.428 56.0938 344.649 55.526 344.649 54.8594C344.649 54.1927 344.428 53.625 343.985 53.1562C343.548 52.6823 343.006 52.4453 342.36 52.4453C341.714 52.4453 341.173 52.6745 340.735 53.1328C340.298 53.5911 340.079 54.1667 340.079 54.8594C340.079 55.5417 340.3 56.1146 340.743 56.5781C341.186 57.0365 341.725 57.2656 342.36 57.2656ZM350.251 52.4609C350.449 52.0599 350.78 51.7266 351.243 51.4609C351.712 51.1953 352.225 51.0599 352.782 51.0547V52.6953C351.949 52.6953 351.329 52.8724 350.923 53.2266C350.522 53.5755 350.321 54.1641 350.321 54.9922V59H348.517V51.1406H350.251V52.4609ZM355.689 59.1484C355.241 59.1484 354.84 59.0807 354.486 58.9453C354.137 58.8047 353.845 58.5703 353.611 58.2422C353.381 57.9089 353.267 57.4974 353.267 57.0078C353.267 56.6797 353.319 56.388 353.423 56.1328C353.533 55.8724 353.673 55.6562 353.845 55.4844C354.022 55.3125 354.243 55.1615 354.509 55.0312C354.78 54.901 355.051 54.7995 355.322 54.7266C355.598 54.6484 355.915 54.5755 356.275 54.5078L357.462 54.2891C357.947 54.1953 358.189 53.9583 358.189 53.5781C358.189 53.1302 358.043 52.8047 357.751 52.6016C357.46 52.3932 357.092 52.2891 356.65 52.2891C356.191 52.2891 355.814 52.401 355.517 52.625C355.22 52.8438 355.043 53.1927 354.986 53.6719L353.368 53.375C353.634 51.7917 354.764 51 356.759 51C357.092 51 357.402 51.026 357.689 51.0781C357.98 51.125 358.264 51.2135 358.54 51.3438C358.822 51.474 359.061 51.6406 359.259 51.8438C359.457 52.0417 359.616 52.3073 359.736 52.6406C359.855 52.9688 359.915 53.3464 359.915 53.7734V56.8203C359.915 57.1849 359.97 57.4349 360.079 57.5703C360.189 57.7057 360.381 57.7734 360.658 57.7734H360.783V59H359.931C359.04 59 358.509 58.6536 358.337 57.9609H358.251C357.965 58.3672 357.592 58.6667 357.134 58.8594C356.681 59.0521 356.199 59.1484 355.689 59.1484ZM356.111 57.7344C356.741 57.7344 357.264 57.5182 357.681 57.0859C358.098 56.6536 358.306 56.0859 358.306 55.3828L356.298 55.8281C355.866 55.9115 355.543 56.0339 355.329 56.1953C355.116 56.3516 355.009 56.5729 355.009 56.8594C355.009 57.151 355.111 57.3698 355.314 57.5156C355.517 57.6615 355.783 57.7344 356.111 57.7344ZM364.845 59C364.137 59 363.585 58.7995 363.189 58.3984C362.793 57.9974 362.595 57.4323 362.595 56.7031V52.5469H361.025V51.1406H361.564C361.991 51.1406 362.298 51.0417 362.486 50.8438C362.679 50.6406 362.775 50.2891 362.775 49.7891V48.5703H364.416V51.1406H366.127V52.5469H364.416V56.5156C364.416 56.875 364.504 57.1484 364.681 57.3359C364.864 57.5182 365.108 57.6094 365.416 57.6094H366.127V59H364.845ZM368.588 49.6406C368.286 49.6406 368.025 49.5339 367.807 49.3203C367.588 49.1016 367.478 48.8411 367.478 48.5391C367.478 48.237 367.585 47.9792 367.799 47.7656C368.018 47.5469 368.281 47.4375 368.588 47.4375C368.885 47.4375 369.143 47.5469 369.361 47.7656C369.58 47.9792 369.689 48.237 369.689 48.5391C369.689 48.8411 369.58 49.1016 369.361 49.3203C369.143 49.5339 368.885 49.6406 368.588 49.6406ZM367.666 59V51.1406H369.471V59H367.666ZM375.19 59.1484C373.976 59.1484 372.984 58.7812 372.213 58.0469C371.442 57.3073 371.057 56.3125 371.057 55.0625C371.057 53.8229 371.442 52.8359 372.213 52.1016C372.984 51.362 373.976 50.9922 375.19 50.9922C376.408 50.9922 377.403 51.3594 378.174 52.0938C378.945 52.8281 379.33 53.8177 379.33 55.0625C379.33 56.3125 378.945 57.3073 378.174 58.0469C377.403 58.7812 376.408 59.1484 375.19 59.1484ZM375.174 57.6953C375.867 57.6953 376.434 57.4531 376.877 56.9688C377.32 56.4844 377.541 55.849 377.541 55.0625C377.541 54.276 377.32 53.6432 376.877 53.1641C376.434 52.6797 375.867 52.4375 375.174 52.4375C374.497 52.4375 373.94 52.6797 373.502 53.1641C373.065 53.6432 372.846 54.276 372.846 55.0625C372.846 55.849 373.062 56.4844 373.494 56.9688C373.932 57.4531 374.492 57.6953 375.174 57.6953ZM385.096 50.9922C385.982 50.9922 386.674 51.2292 387.174 51.7031C387.674 52.1719 387.924 52.8411 387.924 53.7109V59H386.112V54.1016C386.112 53.5443 385.966 53.1328 385.674 52.8672C385.388 52.5964 385.018 52.4609 384.565 52.4609C384.023 52.4609 383.581 52.6276 383.237 52.9609C382.893 53.2891 382.719 53.7969 382.713 54.4844V59H380.917V51.1406H382.713V52.0703C382.979 51.7266 383.315 51.4609 383.721 51.2734C384.133 51.0859 384.591 50.9922 385.096 50.9922Z" fill="white"></path><path d="M234.447 172.026L234.071 190.642L219.78 199.48" stroke="#E5E5E6" stroke-width="2"></path><path d="M219.591 163L203.984 172.026L219.591 181.052L234.259 171.838L219.591 163Z" stroke="#E5E5E6" stroke-width="2"></path><path d="M203.796 172.026V190.454L219.592 199.48V181.24" stroke="#E5E5E6" stroke-width="2"></path><path d="M213.762 207.001L213.386 225.618L199.095 234.456" stroke="#E5E5E6" stroke-width="2"></path><path d="M198.907 197.976L183.299 207.002L198.907 216.028L213.574 206.814L198.907 197.976Z" stroke="#E5E5E6" stroke-width="2"></path><path d="M183.111 207.001V225.43L198.907 234.456V216.216" stroke="#E5E5E6" stroke-width="2"></path><path d="M254.755 207.19L254.379 225.995L240.088 234.833" stroke="#E5E5E6" stroke-width="2"></path><path d="M239.9 198.352L224.293 207.378L239.9 216.404L254.567 207.19L239.9 198.352Z" stroke="#E5E5E6" stroke-width="2"></path><path d="M224.105 207.378V225.806L239.9 234.832V216.592" stroke="#E5E5E6" stroke-width="2"></path><path d="M204.274 180.951L192.306 188.23V201.295" stroke="#E5E5E6" stroke-width="2"></path><path d="M234.192 182.147L246.159 188.867L245.802 202.492" stroke="#E5E5E6" stroke-width="2"></path><path d="M207.864 228.82L219.139 236L230.601 229.004" stroke="#E5E5E6" stroke-width="2"></path><path d="M224.328 75.7075V81.1342C224.328 81.2051 224.315 81.2754 224.289 81.3412C224.262 81.4069 224.223 81.4667 224.173 81.5171C224.123 81.5675 224.064 81.6076 223.998 81.6349C223.933 81.6622 223.863 81.6763 223.792 81.6763H206.415C206.344 81.6763 206.274 81.6622 206.209 81.6349C206.143 81.6076 206.084 81.5675 206.034 81.5171C205.984 81.4667 205.945 81.4069 205.918 81.3412C205.892 81.2754 205.878 81.2051 205.879 81.1342V79.4157" stroke="#2D2F33" stroke-miterlimit="10"></path><path d="M205.879 77.0137V69.0061C205.879 68.8427 205.944 68.6861 206.06 68.5705C206.175 68.455 206.332 68.3901 206.495 68.3901H223.742C223.906 68.3901 224.062 68.455 224.178 68.5705C224.293 68.6861 224.358 68.8427 224.358 69.0061V73.3856" stroke="#2D2F33" stroke-miterlimit="10"></path><path d="M213.277 66H203.742C203.527 66.0234 203.329 66.1297 203.191 66.2965C203.053 66.4633 202.985 66.6774 203.003 66.8932V77.3646C202.985 77.5804 203.053 77.7945 203.191 77.9612C203.329 78.128 203.527 78.2344 203.742 78.2578H218.192" stroke="#2D2F33" stroke-miterlimit="10"></path><path d="M212.193 74.5435H227.475C227.625 74.5576 227.764 74.6299 227.862 74.7449C227.96 74.86 228.009 75.0088 227.999 75.1594V84.3004C228.009 84.4511 227.96 84.5998 227.862 84.7149C227.764 84.83 227.625 84.9023 227.475 84.9164H212.747" stroke="#2D2F33" stroke-miterlimit="10"></path><path d="M216.801 76.6499L218.494 78.2453L216.936 79.9207" stroke="#2D2F33" stroke-miterlimit="10"></path><path d="M213.696 72.9048L212.002 74.5001L213.554 76.1817" stroke="#2D2F33" stroke-miterlimit="10"></path><path d="M140.256 101.702V115.671" stroke="#2D2F33" stroke-miterlimit="10"></path><path d="M134.035 122.799H118.105C117.465 122.799 117 122.282 117 121.707V100.092C117 99.4599 117.523 99 118.105 99H139.151C139.791 99 140.256 99.5174 140.256 100.092V101.702" stroke="#2D2F33" stroke-miterlimit="10"></path><path d="M119.151 102.967H135.721" stroke="#2D2F33" stroke-miterlimit="10"></path><path d="M119.151 106.933H135.721" stroke="#2D2F33" stroke-miterlimit="10"></path><path d="M119.151 110.958H135.721" stroke="#2D2F33" stroke-miterlimit="10"></path><path d="M119.151 114.923H132.465" stroke="#2D2F33" stroke-miterlimit="10"></path><path d="M140.256 115.671C141.302 116.533 142 117.855 142 119.292C142 121.879 139.849 124.006 137.233 124.006C134.616 124.006 132.465 121.879 132.465 119.292C132.465 116.706 134.616 114.579 137.233 114.579C138.395 114.579 139.442 114.981 140.256 115.671Z" stroke="#2D2F33" stroke-miterlimit="10"></path><path d="M134.965 119.293L135.372 120.902C135.43 121.075 135.605 121.132 135.721 121.017L139.442 118.028" stroke="#2D2F33" stroke-miterlimit="10" stroke-linecap="round"></path><path d="M290.83 101.91L294.006 100.775C294.019 100.775 294.031 100.772 294.042 100.767C294.053 100.762 294.063 100.755 294.072 100.745C294.08 100.736 294.085 100.725 294.089 100.713C294.092 100.701 294.093 100.689 294.091 100.677V98H299.193H299.263V100.635C299.257 100.648 299.254 100.662 299.254 100.677C299.254 100.691 299.257 100.705 299.263 100.719L302.412 101.91C302.448 101.922 302.488 101.922 302.524 101.91L304.717 100.34H304.815L308.231 103.311V103.409L306.586 105.147C306.577 105.166 306.571 105.188 306.571 105.21C306.571 105.232 306.577 105.253 306.586 105.273L307.809 108.006C307.817 108.025 307.831 108.043 307.848 108.055C307.866 108.067 307.886 108.075 307.908 108.076L310.93 108.37C310.948 108.37 310.966 108.377 310.979 108.39C310.993 108.404 311 108.421 311 108.44V112.714H310.93L308.119 112.854C308.098 112.857 308.078 112.865 308.06 112.877C308.043 112.889 308.029 112.905 308.02 112.924L306.615 115.727C306.605 115.744 306.6 115.763 306.6 115.783C306.6 115.803 306.605 115.822 306.615 115.839L308.273 117.619C308.287 117.634 308.295 117.654 308.295 117.675C308.295 117.696 308.287 117.716 308.273 117.731L305.153 120.66C305.137 120.674 305.117 120.681 305.097 120.681C305.076 120.681 305.056 120.674 305.04 120.66L302.637 119.258C302.596 119.245 302.551 119.245 302.51 119.258L299.432 120.408C299.412 120.417 299.394 120.43 299.379 120.447C299.364 120.464 299.354 120.484 299.348 120.506L299.095 122.93C299.091 122.95 299.081 122.968 299.065 122.981C299.05 122.993 299.03 123 299.01 123H294.245C294.225 123 294.206 122.993 294.19 122.981C294.175 122.968 294.164 122.95 294.161 122.93L293.866 120.52C293.864 120.5 293.856 120.482 293.843 120.467C293.831 120.452 293.814 120.441 293.795 120.436L290.83 119.3" stroke="#2D2F33" stroke-miterlimit="10"></path><path d="M286 110.812H302.761" stroke="#2D2F33" stroke-miterlimit="10"></path><path d="M300.205 107.688L303.614 110.853L300.205 113.653" stroke="#2D2F33" stroke-miterlimit="10"></path><path d="M124.387 290.961L125.392 294.296C125.483 294.566 125.758 294.656 125.94 294.476L131.788 289.79" stroke="#2D3033" stroke-miterlimit="10" stroke-linecap="round"></path><path d="M140.102 291.232V278.974L127.676 276L115.159 279.064V291.232C115.159 291.232 114.246 299.343 122.743 304.03L127.676 306.463L132.519 303.94C141.016 299.343 140.102 291.232 140.102 291.232Z" stroke="#2D3033" stroke-miterlimit="10" stroke-linecap="round"></path><path d="M137.178 291.231V281.948L127.676 279.605L118.174 281.948V291.231C118.174 291.231 117.443 297.45 123.93 301.055L127.676 302.948L131.422 301.055C137.818 297.45 137.178 291.231 137.178 291.231Z" stroke="#2D3033" stroke-miterlimit="10" stroke-linecap="round"></path><path d="M211.432 323.899H206.689C206.309 323.899 206 324.208 206 324.588V331.5C206 331.881 206.309 332.189 206.689 332.189H211.432C211.813 332.189 212.121 331.881 212.121 331.5V324.588C212.121 324.208 211.813 323.899 211.432 323.899Z" stroke="#2D3033" stroke-miterlimit="10"></path><path d="M230.311 323.899H225.568C225.187 323.899 224.879 324.208 224.879 324.588V331.5C224.879 331.881 225.187 332.189 225.568 332.189H230.311C230.691 332.189 231 331.881 231 331.5V324.588C231 324.208 230.691 323.899 230.311 323.899Z" stroke="#2D3033" stroke-miterlimit="10"></path><path d="M208.151 324.441V323.917C208.147 322.616 208.4 321.327 208.896 320.124C209.391 318.921 210.119 317.828 211.038 316.906C211.956 315.985 213.048 315.254 214.25 314.755C215.451 314.257 216.739 314 218.041 314V314C219.342 313.999 220.632 314.255 221.834 314.753C223.037 315.251 224.13 315.982 225.049 316.903C225.969 317.825 226.698 318.918 227.194 320.122C227.69 321.326 227.943 322.615 227.939 323.917V324.441" stroke="#2D3033" stroke-miterlimit="10"></path><path d="M227.939 332.18V336.62C227.895 337.067 227.678 337.479 227.335 337.769C226.992 338.059 226.549 338.204 226.101 338.173H220.311" stroke="#2D3033" stroke-miterlimit="10"></path><path d="M218.822 339.644C219.898 339.644 220.77 338.771 220.77 337.695C220.77 336.619 219.898 335.747 218.822 335.747C217.746 335.747 216.873 336.619 216.873 337.695C216.873 338.771 217.746 339.644 218.822 339.644Z" stroke="#2D3033" stroke-miterlimit="10"></path><path d="M312.913 282.15L312.782 288.646L307.795 291.73" stroke="#2D3033"></path><path d="M307.73 279L302.283 282.15L307.73 285.299L312.848 282.084L307.73 279Z" stroke="#2D3033"></path><path d="M302.218 282.15V288.58L307.73 291.73V285.365" stroke="#2D3033"></path><path d="M305.696 294.354L305.564 300.851L300.577 303.935" stroke="#2D3033"></path><path d="M300.512 291.205L295.066 294.354L300.512 297.504L305.63 294.289L300.512 291.205Z" stroke="#2D3033"></path><path d="M295 294.354V300.785L300.512 303.935V297.57" stroke="#2D3033"></path><path d="M320 294.42L319.869 300.982L314.882 304.066" stroke="#2D3033"></path><path d="M314.816 291.336L309.37 294.486L314.816 297.636L319.934 294.42L314.816 291.336Z" stroke="#2D3033"></path><path d="M309.304 294.486V300.917L314.816 304.066V297.702" stroke="#2D3033"></path><path d="M302.384 285.264L298.209 287.804V292.363" stroke="#2D3033"></path><path d="M312.824 285.682L317 288.026L316.876 292.781" stroke="#2D3033"></path><path d="M303.637 301.968L307.572 304.473L311.572 302.032" stroke="#2D3033"></path></svg>